<svg width="256" height="256" viewBox="0 0 256 256" xmlns="http://www.w3.org/2000/svg">
  <defs>
    <linearGradient id="g" x1="0" y1="0" x2="1" y2="1">
      <stop offset="0" stop-color="#22c3e6"/>
      <stop offset="1" stop-color="#2dd4bf"/>
    </linearGradient>
  </defs>
  <rect width="256" height="256" rx="58" fill="#0b1424"/>
  <rect x="1.5" y="1.5" width="253" height="253" rx="56.5" fill="none" stroke="#22344f" stroke-width="3"/>

  <!-- chunkier brackets for legibility at 16px -->
  <path d="M96 70 H66 a12 12 0 0 0 -12 12 V174 a12 12 0 0 0 12 12 H96"
        fill="none" stroke="url(#g)" stroke-width="20" stroke-linecap="round" stroke-linejoin="round"/>
  <path d="M160 70 H190 a12 12 0 0 1 12 12 V174 a12 12 0 0 1 -12 12 H160"
        fill="none" stroke="url(#g)" stroke-width="20" stroke-linecap="round" stroke-linejoin="round"/>

  <!-- single bold wave + dot: maximal legibility at 16px -->
  <path d="M96 146 q32 -16 64 0" stroke="url(#g)" stroke-width="22" stroke-linecap="round" fill="none"/>
  <circle cx="128" cy="100" r="15" fill="#eaf0f8"/>
</svg>
